<svg viewBox="0 0 1024 1024" xmlns="http://www.w3.org/2000/svg" fill="#FFFFFF">
  <path d="M180.9 105.5c1.6 1.4 4 4.2 5.2 6.1 2.7 4.5 20.7 27.4 26.2 33.4 2.2 2.5 6.1 6.8 8.6 9.5 16 17.7 31.8 34.2 55.1 57.5 61.5 61.4 101.5 98.8 104.7 97.6 2.7-1.1 23.4-4.5 36.3-6.1 45.3-5.4 78.8-7 120.1-5.5 16.1.6 30.8 1.2 32.4 1.4 1.7.2 6.4.7 10.5 1.1 8 .7 37.8 4.3 42 5 1.4.3 7.2 1.3 12.8 2.4l10.4 1.9 7.1-6c15.2-12.7 36.9-33.2 79-74.8 20.8-20.4 46.1-45.9 51.2-51.4 1.1-1.2 4.9-5.3 8.5-9.2 11.5-12.3 20.2-22.3 29.7-34.2 5.2-6.4 10-12.4 10.7-13.3s3.2-4.3 5.4-7.7c4.9-7.2 8.5-10.2 12.2-10.2 5.4 0 10.2 9.4 12.5 24.5 7.6 51 7.7 51.9 10.4 85 2.3 28.9 2.5 60.9.7 93.5-1.7 29.3-1.9 31.4-4.7 55-5.1 42-9.6 64.5-22.2 110-2.8 10.2-3.2 13-3.2 24.5 0 10.9.4 14.2 2.3 20 3.3 10 12.1 24.3 20.3 33.2 3.8 4.1 23.4 22.3 25.2 23.5 1.4.8 2.1.2-8.8 7.6-4.9 3.3-11.5 8.3-14.5 11.2-3 2.8-7.2 6.6-9.3 8.3-2.2 1.8-5.1 4.2-6.5 5.5-6.7 5.8-32.6 22-68.7 42.7-22.3 12.8-21.3 12.3-34 20-6 3.7-12.6 7.7-14.5 8.8-16.6 10.1-44.4 30.4-56.4 41.1-37.3 33.5-56.5 64.2-72.5 115.8-5.6 18.3-13.2 30.9-26.5 44.3-13.7 13.8-25.7 21.2-42.3 26.1-37.5 11.1-79.4-5.8-103.1-41.6-5.5-8.2-10.9-20.5-15-34.2-5.4-17.7-19.2-47.6-28.7-61.8-27.3-41.1-62.6-69.4-144.5-115.8-2.5-1.4-7.8-4.5-11.8-6.9-4.1-2.4-7.5-4.3-7.7-4.3-.8 0-33.7-19.7-40.5-24.2-7.6-5.1-16.4-12.3-23.3-19-5.4-5.3-17.3-14.8-23.4-18.7-2.9-1.8-5.3-3.7-5.3-4.1s1.7-2.2 3.8-4c9.5-8.2 26.8-26.2 31.3-32.8 14.1-20.4 17-39.6 9.9-65.7-14.3-52.7-23.2-102.3-25.5-143-.3-6.1-.9-16.2-1.4-22.5-1.2-17.1-1.3-60.3-.1-78.5 1.9-30.3 5-58.7 9.6-87.5 3.8-24 6-31.4 10.3-34.7 2.6-2 6.7-1.5 10 1.2z"/>
  <path d="M199.4 202.5c-.9 2.2 2.2 33.8 4.6 47.5s4.2 22.1 7.6 35.5c1.4 5.5 3 11.7 3.5 13.7s2.7 9.9 5 17.5c2.2 7.6 4.5 15.1 4.9 16.8.4 1.6 2 6.8 3.5 11.5 5.9 18.8 12.6 40.2 16.5 53 2.3 7.4 5.4 17.5 7 22.5 1.6 4.9 4.1 12.9 5.5 17.7 1.4 4.9 2.9 8.8 3.2 8.8 3.2 0 11.1-22.3 14.2-40 2.8-16.4 3.4-28.5 2.2-44.5-2-24.3-7-43.2-18.8-70.5-4.8-11-7.3-16-16.8-33.5-8.9-16.2-38-57.5-40.5-57.5-.6 0-1.3.7-1.6 1.5z"/>
  <path d="M819.5 203.8c-21.5 29.2-27.4 38-38.4 57.7-7.1 12.6-16.1 31-16.1 32.7 0 .8-.4 1.8-.9 2.3-.5.6-1.9 3.9-3.1 7.5s-2.6 7.4-3 8.5c-1.9 4.4-5 15.5-6.9 24.5-2.9 13.6-4.1 24.6-4.1 39 0 22.9 3.1 39.8 11.4 62.4 4.1 11 5.3 11.2 7.9 1.1 1.4-5.4 6.4-21.9 19.3-63.5 2.5-8 5.4-17.2 6.4-20.5 5.8-19.2 8.3-27.6 9.6-32.5.8-3 2.3-8.4 3.4-12 9-30.6 15.5-62.9 18-88.5 1.9-20.9 1.2-25-3.5-18.7z"/>
  <path d="M249 548.9c-1.7 1.2.2 5.4 8.1 18.2 7.8 12.7 12.7 18.9 27 34 10.8 11.5 27.1 18.9 54.4 24.7 25.9 5.6 33.3 7.6 40 11 16.5 8.2 33.6 24.1 48.8 45.5 8.7 12.2 9 12.6 10 12 1.2-.7-.6-10.3-6.4-33.8-3.3-13.1-10.8-32.8-17.4-45.3-12.6-23.8-32.6-44.2-50.8-52-4.4-1.9-14.9-5.4-17.7-5.9-1.4-.2-5.4-1.1-8.9-1.9-7.5-1.7-23.3-4-34.1-4.9-4.1-.4-8.6-.8-10-1.1-6.4-1-41.6-1.5-43-.5z"/>
  <path d="M742.5 548.7c-28.4 1.7-61 7-75.5 12.4-20.8 7.7-38.2 23.7-54.3 50.1-10.6 17.2-19.7 43.7-25.2 73.2-2.2 12-1 12.8 5 3.4 11-17 27.6-35 40.5-43.9 13.8-9.5 19.8-11.7 53.3-19.4 10.6-2.4 20.6-4.9 22.2-5.5 1.7-.7 3.8-1.3 4.8-1.5s5.6-2.3 10.3-4.6c7.2-3.6 10.1-5.8 18.4-14.3 11.3-11.5 18.5-20.6 25.6-32.1 5.5-8.8 8.4-15.3 7.7-17.3-.4-1.1-17.7-1.5-32.8-.5z"/>
</svg>
