<?xml version="1.0" encoding="UTF-8"?>
<!-- Ferox Fox Logo - Monochrome Dark (for light backgrounds) -->
<svg xmlns="http://www.w3.org/2000/svg" width="1024" height="1024" viewBox="0 0 1024 1024" role="img"
  aria-label="Ferox Logo">
  <title>Ferox Logo - Monochrome Dark</title>

  <!--  Face - Dark -->
  <path id="face"
    d="M0 0 C4.0927854 -0.00813675 6.1288264 1.82771953 9.0625 4.5625 C10.68750349 6.66446697 12.20228582 8.74335741 13.6875 10.9375 C24.72903458 26.79420258 37.17290042 41.50643645 50.34375 55.625 C52.55298442 57.99810621 54.69906052 60.41572497 56.8125 62.875 C59.67667535 66.19104768 62.72340528 69.26958096 65.875 72.3125 C67.62707153 74.11463072 69.23227854 75.93445253 70.85375977 77.84936523 C76.45758786 84.26758924 82.56268284 90.20642842 88.58984375 96.22265625 C89.9060346 97.53952213 91.2220771 98.8565363 92.53797913 100.1736908 C95.28566144 102.92284074 98.0351269 105.67019119 100.78588867 108.41625977 C104.29372563 111.91840003 107.79705307 115.42501151 111.29904842 118.93299198 C114.01257406 121.65014855 116.72849845 124.36489743 119.4451313 127.07894707 C120.73711896 128.37027245 122.02837755 129.66232772 123.31886101 130.95515633 C132.10610728 139.75730096 132.10610728 139.75730096 141.35035706 148.07273865 C144.27118852 150.61419808 146.97181808 153.36804998 149.6875 156.125 C150.57429443 157.01747437 150.57429443 157.01747437 151.47900391 157.92797852 C153.96841073 160.43349056 156.45171013 162.94502265 158.93554688 165.45605469 C167.90444604 174.56151306 167.90444604 174.56151306 177.38037109 183.12988281 C180.13125411 185.47272483 182.74020017 187.96599527 185.375 190.4375 C194.54605749 199.45342692 194.54605749 199.45342692 205.0625 206.5625 C207.15441396 206.31095853 207.15441396 206.31095853 209.58203125 205.7421875 C224.76522359 202.59378317 239.90374433 200.49386758 255.3125 198.8125 C256.75938705 198.6529483 256.75938705 198.6529483 258.23550415 198.49017334 C274.50141488 196.70751784 290.70117842 195.50679428 307.0625 195 C307.73291321 194.97915344 308.40332642 194.95830688 309.09405518 194.93682861 C341.79394301 193.93627438 374.4640973 194.79158228 407.0625 197.5625 C408.31498535 197.66449707 408.31498535 197.66449707 409.59277344 197.76855469 C422.6807222 198.86060293 435.63247593 200.95280851 448.59317017 203.0302124 C450.53010496 203.33920528 452.46841816 203.63951712 454.40673828 203.93969727 C456.76701606 204.34179882 459.11747519 204.8094722 461.44873047 205.35522461 C466.86036957 206.70576024 466.86036957 206.70576024 472.17553711 205.70556641 C474.10213322 204.31653585 475.67385263 202.84269844 477.3125 201.125 C477.90401855 200.56240479 478.49553711 199.99980957 479.10498047 199.42016602 C480.26815524 198.31209909 481.41904566 197.19095542 482.55566406 196.05566406 C484.35504264 194.27261166 486.25054642 192.63154181 488.1875 191 C495.42722415 184.6321566 502.58128956 178.15759746 509.32641602 171.265625 C511.00826285 169.61570748 512.74825095 168.09899906 514.546875 166.578125 C520.16451546 161.69198839 525.33713542 156.35886597 530.5625 151.0625 C532.54900296 149.04900477 534.539076 147.03913278 536.53125 145.03125 C537.40201172 144.14888672 538.27277344 143.26652344 539.16992188 142.35742188 C541.26328475 140.28771699 543.44165108 138.35756676 545.67749023 136.44311523 C551.29816499 131.56721479 556.50130935 126.2678339 561.75390625 121.00390625 C562.86899011 119.88949782 563.98422222 118.77523771 565.09959412 117.66111755 C567.42503762 115.33713979 569.74868511 113.01138536 572.07104492 110.68432617 C575.02837903 107.72129549 577.99018128 104.7627783 580.95335484 101.80558872 C583.25360598 99.50897368 585.55144231 97.20995434 587.84858513 94.91023064 C588.93895297 93.81920194 590.0300468 92.72889823 591.12191963 91.63937569 C596.49259775 86.27772692 601.80179398 80.90370472 606.72398376 75.12120056 C608.40591041 73.16259898 610.20588506 71.35509373 612.0625 69.5625 C615.94276443 65.72658145 619.51145289 61.70208192 623.0625 57.5625 C624.04224514 56.43426705 625.02278415 55.30672324 626.00390625 54.1796875 C628.82044126 50.94325427 631.62809058 47.69927905 634.43115234 44.45117188 C635.46370158 43.25575121 636.49770001 42.06157944 637.53369141 40.86914062 C646.06395255 31.04333299 653.93149422 20.76062278 661.4921875 10.171875 C662.19601562 9.18703125 662.89984375 8.2021875 663.625 7.1875 C664.22441406 6.33414063 664.82382812 5.48078125 665.44140625 4.6015625 C667.0625 2.5625 667.0625 2.5625 670.0625 0.5625 C673.07362595 0.22793045 675.16281648 0.01550088 678.0625 0.5625 C686.88049218 7.91082681 687.75356072 23.26079087 689.5 33.875 C689.64835297 34.75855164 689.79670593 35.64210327 689.94955444 36.5524292 C693.4197079 57.32426909 695.84441912 78.19994595 697.83398438 99.16101074 C698.039464 101.32041281 698.25134056 103.4790756 698.46484375 105.63769531 C703.64431542 160.03669695 701.00067894 216.54821868 693.0625 270.5625 C692.86621332 271.9411282 692.6707602 273.31987531 692.47607422 274.69873047 C687.78712697 307.84009915 680.49078417 340.01758208 671.92797852 372.36962891 C671.69651123 373.2466748 671.46504395 374.1237207 671.2265625 375.02734375 C671.02498535 375.786521 670.8234082 376.54569824 670.61572266 377.32788086 C666.03163175 395.84429041 669.55982052 413.83488847 678.9921875 430.19140625 C681.71698523 434.62819953 684.64466046 438.64074823 688.0625 442.5625 C689.06023437 443.74005859 689.06023437 443.74005859 690.078125 444.94140625 C697.81882497 453.83764237 706.59288129 461.69289129 715.734375 469.125 C717.0625 470.5625 717.0625 470.5625 717.0625 473.5625 C714.82421875 475.0703125 714.82421875 475.0703125 711.75 476.6875 C703.88614398 481.08309877 696.98280188 486.42422204 690.75 492.9375 C674.51772687 509.54992004 652.82450653 521.38550313 632.90576172 532.91503906 C630.01698541 534.58887236 627.13468597 536.273383 624.25390625 537.9609375 C615.96282177 542.81445555 607.66204271 547.65001097 599.328125 552.4296875 C588.15387355 558.8394427 577.02660473 565.26981219 566.17675781 572.21679688 C563.7388139 573.76852284 561.28769101 575.29831551 558.8359375 576.828125 C538.98537464 589.26157528 519.5597001 602.62716929 502.2890625 618.51953125 C500.24822074 620.39209308 498.16786303 622.20079534 496.0625 624 C465.80978527 650.47873422 445.80162328 687.38037862 433.9375 725.375 C424.56607398 755.34378188 408.94385058 779.72510854 381.0625 795.5625 C359.81623757 806.55606661 335.9775847 810.74507935 312.65234375 803.8125 C286.06953856 794.55624575 263.65381563 776.6725646 250.89257812 751.22998047 C247.55080768 744.17120949 245.0469028 736.89268072 242.61346436 729.48461914 C232.09188787 697.62063041 218.15251316 668.08164878 196.0625 642.5625 C195.36898437 641.758125 194.67546875 640.95375 193.9609375 640.125 C184.46444005 629.35079198 174.38301412 619.41053919 163.0625 610.5625 C162.0415625 609.73621094 161.020625 608.90992188 159.96875 608.05859375 C134.26476878 587.32932975 105.68350297 570.86965386 77.0625 554.5625 C75.26677066 553.53673212 73.47118988 552.51070411 71.67578125 551.484375 C69.12855925 550.02878507 66.58130862 548.57324545 64.03393555 547.11791992 C62.30376771 546.12941726 60.57370827 545.14072484 58.84375 544.15185547 C56.88581832 543.03298826 54.92744434 541.91489485 52.96875 540.79736328 C27.65742825 526.34298618 3.7754218 512.25999194 -17.45703125 492.1796875 C-23.86423766 486.23827154 -30.67012167 481.38589958 -37.9375 476.5625 C-39.06785946 475.80882035 -40.19807311 475.05492198 -41.328125 474.30078125 C-42.18921875 473.72714844 -43.0503125 473.15351562 -43.9375 472.5625 C-42.8629319 469.33879571 -42.3319369 468.81681079 -39.8125 466.75 C-18.97881141 449.03198015 2.01597314 429.35432424 5.0625 400.5625 C5.78073234 387.496784 3.22507838 375.73356523 -0.01953125 363.15234375 C-0.62846444 360.75461042 -1.23718108 358.35682208 -1.84570312 355.95898438 C-2.79042327 352.25370889 -3.73740185 348.54904596 -4.6887207 344.84545898 C-9.04793487 327.84440933 -12.8550376 310.84193093 -15.9375 293.5625 C-16.12198196 292.53269012 -16.30646393 291.50288025 -16.49653625 290.44186401 C-27.45562697 228.86192087 -29.61917792 163.75616279 -23.9375 101.5625 C-23.81237402 100.13186116 -23.68754712 98.70119614 -23.56298828 97.27050781 C-21.92830322 78.77275579 -19.63764584 60.36774672 -16.9468689 41.99472046 C-16.6526364 39.98175061 -16.36298524 37.96810494 -16.07827759 35.95376587 C-11.18185283 1.59740755 -11.18185283 1.59740755 0 0 Z"
    fill="#12161F" transform="translate(174.9375,101.4375)" />

</svg>
